<svg width="62" height="16" viewBox="0 0 62 16" fill="none" xmlns="http://www.w3.org/2000/svg">
<g clip-path="url(#clip0_3742_236675)">
<g clip-path="url(#clip1_3742_236675)">
<rect x="0.5" y="0.5" width="15" height="15" rx="2.5" fill="#F5F5F5"/>
<rect x="0.5" y="0.5" width="15" height="15" rx="2.5" stroke="#B1B1B4"/>
</g>
<g clip-path="url(#clip2_3742_236675)">
<path d="M25.0043 13V2.81818H26.8487V11.4538H31.3331V13H25.0043ZM35.1918 13.1541C34.7079 13.1541 34.2721 13.0679 33.8843 12.8956C33.4998 12.7199 33.1949 12.4614 32.9695 12.12C32.7475 11.7786 32.6364 11.3577 32.6364 10.8572C32.6364 10.4264 32.716 10.0701 32.8751 9.78835C33.0342 9.50663 33.2513 9.28125 33.5264 9.11222C33.8015 8.94318 34.1114 8.81558 34.4561 8.7294C34.8041 8.63991 35.1637 8.57528 35.5349 8.53551C35.9823 8.48911 36.3453 8.44768 36.6237 8.41122C36.9021 8.37145 37.1043 8.31179 37.2302 8.23224C37.3595 8.14938 37.4241 8.02178 37.4241 7.84943V7.8196C37.4241 7.44508 37.3131 7.15507 37.091 6.94957C36.8689 6.74408 36.5491 6.64134 36.1315 6.64134C35.6907 6.64134 35.341 6.73745 35.0825 6.92969C34.8273 7.12192 34.6549 7.34896 34.5654 7.6108L32.885 7.37216C33.0176 6.90814 33.2364 6.52036 33.5413 6.20881C33.8462 5.89394 34.2191 5.65862 34.6599 5.50284C35.1007 5.34375 35.5879 5.2642 36.1215 5.2642C36.4894 5.2642 36.8557 5.30729 37.2203 5.39347C37.5848 5.47964 37.9179 5.62216 38.2195 5.82102C38.5212 6.01657 38.7631 6.28338 38.9454 6.62145C39.131 6.95952 39.2238 7.3821 39.2238 7.8892V13H37.4937V11.951H37.434C37.3247 12.1631 37.1705 12.362 36.9717 12.5476C36.7761 12.7299 36.5292 12.8774 36.2309 12.9901C35.9359 13.0994 35.5896 13.1541 35.1918 13.1541ZM35.6592 11.8317C36.0204 11.8317 36.3337 11.7604 36.5988 11.6179C36.864 11.4721 37.0678 11.2798 37.2103 11.0412C37.3561 10.8026 37.4291 10.5424 37.4291 10.2607V9.3608C37.3727 9.4072 37.2766 9.45028 37.1407 9.49006C37.0081 9.52983 36.859 9.56463 36.6933 9.59446C36.5275 9.62429 36.3635 9.6508 36.2011 9.67401C36.0387 9.69721 35.8978 9.71709 35.7785 9.73366C35.51 9.77012 35.2697 9.82978 35.0576 9.91264C34.8455 9.9955 34.6781 10.1115 34.5555 10.2607C34.4329 10.4065 34.3715 10.5954 34.3715 10.8274C34.3715 11.1589 34.4925 11.4091 34.7345 11.5781C34.9764 11.7472 35.2847 11.8317 35.6592 11.8317ZM41.253 13V2.81818H43.0527V6.62642H43.1273C43.2201 6.44081 43.351 6.24361 43.5201 6.0348C43.6891 5.82268 43.9178 5.64205 44.2061 5.4929C44.4945 5.34044 44.8624 5.2642 45.3098 5.2642C45.8998 5.2642 46.4318 5.41501 46.9057 5.71662C47.383 6.01491 47.7608 6.45739 48.0392 7.04403C48.321 7.62737 48.4618 8.34328 48.4618 9.19176C48.4618 10.0303 48.3243 10.7429 48.0492 11.3295C47.7741 11.9162 47.3996 12.3636 46.9256 12.6719C46.4516 12.9801 45.9147 13.1342 45.3148 13.1342C44.8773 13.1342 44.5144 13.0613 44.226 12.9155C43.9377 12.7696 43.7057 12.594 43.53 12.3885C43.3577 12.1797 43.2234 11.9825 43.1273 11.7969H43.0229V13H41.253ZM43.0179 9.18182C43.0179 9.67566 43.0875 10.1082 43.2267 10.4794C43.3693 10.8506 43.5731 11.1406 43.8382 11.3494C44.1067 11.5549 44.4315 11.6577 44.8127 11.6577C45.2104 11.6577 45.5435 11.5516 45.812 11.3395C46.0804 11.1241 46.2826 10.8307 46.4185 10.4595C46.5577 10.085 46.6273 9.65909 46.6273 9.18182C46.6273 8.70786 46.5594 8.28693 46.4235 7.91903C46.2876 7.55114 46.0854 7.26278 45.8169 7.05398C45.5485 6.84517 45.2137 6.74077 44.8127 6.74077C44.4282 6.74077 44.1017 6.84186 43.8333 7.04403C43.5648 7.24621 43.361 7.52959 43.2218 7.89418C43.0859 8.25876 43.0179 8.68797 43.0179 9.18182ZM53.5125 13.1491C52.7469 13.1491 52.0857 12.9901 51.5288 12.6719C50.9753 12.3504 50.5494 11.8963 50.2511 11.3097C49.9528 10.7197 49.8037 10.0253 49.8037 9.22656C49.8037 8.44105 49.9528 7.75166 50.2511 7.15838C50.5528 6.56179 50.9737 6.09777 51.5139 5.76633C52.0542 5.43158 52.6889 5.2642 53.418 5.2642C53.8887 5.2642 54.3328 5.34044 54.7504 5.4929C55.1714 5.64205 55.5426 5.87405 55.8641 6.18892C56.1889 6.50379 56.4441 6.90483 56.6297 7.39205C56.8153 7.87595 56.9081 8.45265 56.9081 9.12216V9.67401H50.6489V8.46094H55.183C55.1796 8.11624 55.1051 7.80966 54.9592 7.54119C54.8134 7.26941 54.6096 7.05563 54.3477 6.89986C54.0892 6.74408 53.7876 6.66619 53.4429 6.66619C53.075 6.66619 52.7519 6.75568 52.4734 6.93466C52.195 7.11032 51.9779 7.34233 51.8222 7.63068C51.6697 7.91572 51.5918 8.22893 51.5885 8.57031V9.62926C51.5885 10.0734 51.6697 10.4545 51.8321 10.7727C51.9945 11.0876 52.2216 11.3295 52.5132 11.4986C52.8049 11.6643 53.1463 11.7472 53.5374 11.7472C53.7992 11.7472 54.0362 11.7107 54.2483 11.6378C54.4604 11.5616 54.6444 11.4505 54.8001 11.3047C54.9559 11.1589 55.0736 10.9782 55.1531 10.7628L56.8335 10.9517C56.7275 11.3958 56.5253 11.7836 56.227 12.1151C55.932 12.4432 55.5542 12.6984 55.0935 12.8807C54.6328 13.0597 54.1058 13.1491 53.5125 13.1491ZM60.3704 2.81818V13H58.5707V2.81818H60.3704Z" fill="#111212"/>
</g>
</g>
<defs>
<clipPath id="clip0_3742_236675">
<rect width="62" height="16" fill="white"/>
</clipPath>
<clipPath id="clip1_3742_236675">
<rect width="16" height="16" fill="white"/>
</clipPath>
<clipPath id="clip2_3742_236675">
<rect width="38" height="16" fill="white" transform="translate(24)"/>
</clipPath>
</defs>
</svg>
