<svg width="346" height="177" viewBox="0 0 346 177" fill="none" xmlns="http://www.w3.org/2000/svg">
<rect x="0.5" y="0.5" width="345" height="176" rx="7.5" fill="#FAFAFA"/>
<rect x="0.5" y="0.5" width="345" height="176" rx="7.5" stroke="#DBDBDC"/>
<path d="M30.32 40.16C28.784 40.16 27.5787 39.728 26.704 38.864C25.84 38 25.408 36.752 25.408 35.12V28.8H27.488V35.04C27.488 36.192 27.7333 37.0293 28.224 37.552C28.7253 38.0747 29.4293 38.336 30.336 38.336C31.2427 38.336 31.9413 38.0747 32.432 37.552C32.9227 37.0293 33.168 36.192 33.168 35.04V28.8H35.216V35.12C35.216 36.752 34.7787 38 33.904 38.864C33.04 39.728 31.8453 40.16 30.32 40.16ZM41.601 40.16C40.7263 40.16 39.889 40.0373 39.089 39.792C38.289 39.536 37.6543 39.2107 37.185 38.816L37.905 37.2C38.353 37.552 38.9077 37.8453 39.569 38.08C40.2303 38.3147 40.9077 38.432 41.601 38.432C42.1877 38.432 42.6623 38.368 43.025 38.24C43.3877 38.112 43.6543 37.9413 43.825 37.728C43.9957 37.504 44.081 37.2533 44.081 36.976C44.081 36.6347 43.9583 36.3627 43.713 36.16C43.4677 35.9467 43.1477 35.7813 42.753 35.664C42.369 35.536 41.937 35.4187 41.457 35.312C40.9877 35.2053 40.513 35.0827 40.033 34.944C39.5637 34.7947 39.1317 34.608 38.737 34.384C38.353 34.1493 38.0383 33.84 37.793 33.456C37.5477 33.072 37.425 32.5813 37.425 31.984C37.425 31.376 37.585 30.8213 37.905 30.32C38.2357 29.808 38.7317 29.4027 39.393 29.104C40.065 28.7947 40.913 28.64 41.937 28.64C42.609 28.64 43.2757 28.7253 43.937 28.896C44.5983 29.0667 45.1743 29.312 45.665 29.632L45.009 31.248C44.5077 30.9493 43.9903 30.7307 43.457 30.592C42.9237 30.4427 42.4117 30.368 41.921 30.368C41.345 30.368 40.8757 30.4373 40.513 30.576C40.161 30.7147 39.8997 30.896 39.729 31.12C39.569 31.344 39.489 31.6 39.489 31.888C39.489 32.2293 39.6063 32.5067 39.841 32.72C40.0863 32.9227 40.401 33.0827 40.785 33.2C41.1797 33.3173 41.617 33.4347 42.097 33.552C42.577 33.6587 43.0517 33.7813 43.521 33.92C44.001 34.0587 44.433 34.24 44.817 34.464C45.2117 34.688 45.5263 34.992 45.761 35.376C46.0063 35.76 46.129 36.2453 46.129 36.832C46.129 37.4293 45.9637 37.984 45.633 38.496C45.313 38.9973 44.817 39.4027 44.145 39.712C43.473 40.0107 42.625 40.16 41.601 40.16ZM47.8019 36.384V34.72H52.2019V36.384H47.8019ZM56.4861 33.952H62.0701V35.712H56.4861V33.952ZM56.6621 40H54.5821V28.8H62.7581V30.544H56.6621V40ZM67.9593 40.112C67.2339 40.112 66.5939 39.9787 66.0393 39.712C65.4846 39.4347 65.0526 39.0187 64.7433 38.464C64.4339 37.8987 64.2793 37.1893 64.2793 36.336V31.456H66.2793V36.064C66.2793 36.832 66.4499 37.408 66.7913 37.792C67.1433 38.1653 67.6393 38.352 68.2793 38.352C68.7486 38.352 69.1539 38.256 69.4953 38.064C69.8473 37.872 70.1193 37.584 70.3113 37.2C70.5139 36.816 70.6153 36.3413 70.6153 35.776V31.456H72.6153V40H70.7113V37.696L71.0473 38.4C70.7593 38.9547 70.3379 39.3813 69.7833 39.68C69.2286 39.968 68.6206 40.112 67.9593 40.112ZM79.2499 40.112C78.3005 40.112 77.4685 39.9253 76.7539 39.552C76.0499 39.168 75.5005 38.6453 75.1059 37.984C74.7219 37.3227 74.5299 36.5707 74.5299 35.728C74.5299 34.8747 74.7165 34.1227 75.0899 33.472C75.4739 32.8107 75.9965 32.2933 76.6579 31.92C77.3299 31.5467 78.0925 31.36 78.9459 31.36C79.7779 31.36 80.5192 31.5413 81.1699 31.904C81.8205 32.2667 82.3325 32.7787 82.7059 33.44C83.0792 34.1013 83.2659 34.88 83.2659 35.776C83.2659 35.8613 83.2605 35.9573 83.2499 36.064C83.2499 36.1707 83.2445 36.272 83.2339 36.368H76.1139V35.04H82.1779L81.3939 35.456C81.4045 34.9653 81.3032 34.5333 81.0899 34.16C80.8765 33.7867 80.5832 33.4933 80.2099 33.28C79.8472 33.0667 79.4259 32.96 78.9459 32.96C78.4552 32.96 78.0232 33.0667 77.6499 33.28C77.2872 33.4933 76.9992 33.792 76.7859 34.176C76.5832 34.5493 76.4819 34.992 76.4819 35.504V35.824C76.4819 36.336 76.5992 36.7893 76.8339 37.184C77.0685 37.5787 77.3992 37.8827 77.8259 38.096C78.2525 38.3093 78.7432 38.416 79.2979 38.416C79.7779 38.416 80.2099 38.3413 80.5939 38.192C80.9779 38.0427 81.3192 37.808 81.6179 37.488L82.6899 38.72C82.3059 39.168 81.8205 39.5147 81.2339 39.76C80.6579 39.9947 79.9965 40.112 79.2499 40.112ZM85.187 40V28.128H87.187V40H85.187ZM89.38 36.384V34.72H93.78V36.384H89.38ZM99.3979 40.16C98.5232 40.16 97.6859 40.0373 96.8859 39.792C96.0859 39.536 95.4512 39.2107 94.9819 38.816L95.7019 37.2C96.1499 37.552 96.7045 37.8453 97.3659 38.08C98.0272 38.3147 98.7045 38.432 99.3979 38.432C99.9845 38.432 100.459 38.368 100.822 38.24C101.185 38.112 101.451 37.9413 101.622 37.728C101.793 37.504 101.878 37.2533 101.878 36.976C101.878 36.6347 101.755 36.3627 101.51 36.16C101.265 35.9467 100.945 35.7813 100.55 35.664C100.166 35.536 99.7339 35.4187 99.2539 35.312C98.7845 35.2053 98.3099 35.0827 97.8299 34.944C97.3605 34.7947 96.9285 34.608 96.5339 34.384C96.1499 34.1493 95.8352 33.84 95.5899 33.456C95.3445 33.072 95.2219 32.5813 95.2219 31.984C95.2219 31.376 95.3819 30.8213 95.7019 30.32C96.0325 29.808 96.5285 29.4027 97.1899 29.104C97.8619 28.7947 98.7099 28.64 99.7339 28.64C100.406 28.64 101.073 28.7253 101.734 28.896C102.395 29.0667 102.971 29.312 103.462 29.632L102.806 31.248C102.305 30.9493 101.787 30.7307 101.254 30.592C100.721 30.4427 100.209 30.368 99.7179 30.368C99.1419 30.368 98.6725 30.4373 98.3099 30.576C97.9579 30.7147 97.6965 30.896 97.5259 31.12C97.3659 31.344 97.2859 31.6 97.2859 31.888C97.2859 32.2293 97.4032 32.5067 97.6379 32.72C97.8832 32.9227 98.1979 33.0827 98.5819 33.2C98.9765 33.3173 99.4139 33.4347 99.8939 33.552C100.374 33.6587 100.849 33.7813 101.318 33.92C101.798 34.0587 102.23 34.24 102.614 34.464C103.009 34.688 103.323 34.992 103.558 35.376C103.803 35.76 103.926 36.2453 103.926 36.832C103.926 37.4293 103.761 37.984 103.43 38.496C103.11 38.9973 102.614 39.4027 101.942 39.712C101.27 40.0107 100.422 40.16 99.3979 40.16ZM106.344 43.216C105.928 43.216 105.512 43.1467 105.096 43.008C104.68 42.8693 104.333 42.6773 104.056 42.432L104.856 40.96C105.059 41.1413 105.288 41.2853 105.544 41.392C105.8 41.4987 106.061 41.552 106.328 41.552C106.691 41.552 106.984 41.4613 107.208 41.28C107.432 41.0987 107.64 40.7947 107.832 40.368L108.328 39.248L108.488 39.008L111.72 31.456H113.64L109.64 40.688C109.373 41.328 109.075 41.8347 108.744 42.208C108.424 42.5813 108.061 42.8427 107.656 42.992C107.261 43.1413 106.824 43.216 106.344 43.216ZM108.104 40.304L104.248 31.456H106.328L109.464 38.832L108.104 40.304ZM117.421 40.112C116.706 40.112 116.018 40.0213 115.357 39.84C114.706 39.648 114.189 39.4187 113.805 39.152L114.573 37.632C114.957 37.8773 115.415 38.08 115.949 38.24C116.482 38.4 117.015 38.48 117.549 38.48C118.178 38.48 118.631 38.3947 118.909 38.224C119.197 38.0533 119.341 37.824 119.341 37.536C119.341 37.3013 119.245 37.1253 119.053 37.008C118.861 36.88 118.61 36.784 118.301 36.72C117.991 36.656 117.645 36.5973 117.261 36.544C116.887 36.4907 116.509 36.4213 116.125 36.336C115.751 36.24 115.41 36.1067 115.101 35.936C114.791 35.7547 114.541 35.5147 114.349 35.216C114.157 34.9173 114.061 34.5227 114.061 34.032C114.061 33.488 114.215 33.0187 114.525 32.624C114.834 32.2187 115.266 31.9093 115.821 31.696C116.386 31.472 117.053 31.36 117.821 31.36C118.397 31.36 118.978 31.424 119.565 31.552C120.151 31.68 120.637 31.8613 121.021 32.096L120.253 33.616C119.847 33.3707 119.437 33.2053 119.021 33.12C118.615 33.024 118.21 32.976 117.805 32.976C117.197 32.976 116.743 33.0667 116.445 33.248C116.157 33.4293 116.013 33.6587 116.013 33.936C116.013 34.192 116.109 34.384 116.301 34.512C116.493 34.64 116.743 34.7413 117.053 34.816C117.362 34.8907 117.703 34.9547 118.077 35.008C118.461 35.0507 118.839 35.12 119.213 35.216C119.586 35.312 119.927 35.4453 120.237 35.616C120.557 35.776 120.813 36.0053 121.005 36.304C121.197 36.6027 121.293 36.992 121.293 37.472C121.293 38.0053 121.133 38.4693 120.813 38.864C120.503 39.2587 120.061 39.568 119.485 39.792C118.909 40.0053 118.221 40.112 117.421 40.112ZM126.231 40.112C125.292 40.112 124.567 39.872 124.055 39.392C123.543 38.9013 123.287 38.1813 123.287 37.232V29.568H125.287V37.184C125.287 37.5893 125.388 37.904 125.591 38.128C125.804 38.352 126.098 38.464 126.471 38.464C126.919 38.464 127.292 38.3467 127.591 38.112L128.151 39.536C127.916 39.728 127.628 39.872 127.287 39.968C126.946 40.064 126.594 40.112 126.231 40.112ZM121.879 33.12V31.52H127.575V33.12H121.879ZM133.531 40.112C132.582 40.112 131.75 39.9253 131.035 39.552C130.331 39.168 129.782 38.6453 129.387 37.984C129.003 37.3227 128.811 36.5707 128.811 35.728C128.811 34.8747 128.998 34.1227 129.371 33.472C129.755 32.8107 130.278 32.2933 130.939 31.92C131.611 31.5467 132.374 31.36 133.227 31.36C134.059 31.36 134.8 31.5413 135.451 31.904C136.102 32.2667 136.614 32.7787 136.987 33.44C137.36 34.1013 137.547 34.88 137.547 35.776C137.547 35.8613 137.542 35.9573 137.531 36.064C137.531 36.1707 137.526 36.272 137.515 36.368H130.395V35.04H136.459L135.675 35.456C135.686 34.9653 135.584 34.5333 135.371 34.16C135.158 33.7867 134.864 33.4933 134.491 33.28C134.128 33.0667 133.707 32.96 133.227 32.96C132.736 32.96 132.304 33.0667 131.931 33.28C131.568 33.4933 131.28 33.792 131.067 34.176C130.864 34.5493 130.763 34.992 130.763 35.504V35.824C130.763 36.336 130.88 36.7893 131.115 37.184C131.35 37.5787 131.68 37.8827 132.107 38.096C132.534 38.3093 133.024 38.416 133.579 38.416C134.059 38.416 134.491 38.3413 134.875 38.192C135.259 38.0427 135.6 37.808 135.899 37.488L136.971 38.72C136.587 39.168 136.102 39.5147 135.515 39.76C134.939 39.9947 134.278 40.112 133.531 40.112ZM150.252 31.36C150.935 31.36 151.538 31.4933 152.06 31.76C152.594 32.0267 153.01 32.4373 153.308 32.992C153.607 33.536 153.756 34.24 153.756 35.104V40H151.756V35.36C151.756 34.6027 151.591 34.0373 151.26 33.664C150.93 33.2907 150.455 33.104 149.836 33.104C149.399 33.104 149.01 33.2 148.668 33.392C148.338 33.584 148.076 33.8667 147.884 34.24C147.703 34.6133 147.612 35.088 147.612 35.664V40H145.612V35.36C145.612 34.6027 145.447 34.0373 145.116 33.664C144.786 33.2907 144.311 33.104 143.692 33.104C143.255 33.104 142.866 33.2 142.524 33.392C142.194 33.584 141.932 33.8667 141.74 34.24C141.559 34.6133 141.468 35.088 141.468 35.664V40H139.468V31.456H141.372V33.728L141.036 33.056C141.324 32.5013 141.74 32.08 142.284 31.792C142.839 31.504 143.468 31.36 144.172 31.36C144.972 31.36 145.666 31.5573 146.252 31.952C146.85 32.3467 147.244 32.944 147.436 33.744L146.652 33.472C146.93 32.832 147.388 32.32 148.028 31.936C148.668 31.552 149.41 31.36 150.252 31.36Z" fill="#111212"/>
<path d="M29.53 68.112C28.242 68.112 27.2293 67.7433 26.492 67.006C25.7547 66.2687 25.386 65.1907 25.386 63.772V58.2H26.786V63.716C26.786 64.808 27.024 65.606 27.5 66.11C27.9853 66.614 28.6667 66.866 29.544 66.866C30.4307 66.866 31.112 66.614 31.588 66.11C32.0733 65.606 32.316 64.808 32.316 63.716V58.2H33.674V63.772C33.674 65.1907 33.3053 66.2687 32.568 67.006C31.84 67.7433 30.8273 68.112 29.53 68.112ZM39.4002 68.112C38.6536 68.112 37.9396 68 37.2582 67.776C36.5769 67.5427 36.0402 67.244 35.6482 66.88L36.1662 65.788C36.5396 66.1147 37.0156 66.3853 37.5942 66.6C38.1729 66.8147 38.7749 66.922 39.4002 66.922C39.9696 66.922 40.4316 66.8567 40.7862 66.726C41.1409 66.5953 41.4022 66.418 41.5702 66.194C41.7382 65.9607 41.8222 65.6993 41.8222 65.41C41.8222 65.074 41.7102 64.8033 41.4862 64.598C41.2716 64.3927 40.9869 64.2293 40.6322 64.108C40.2869 63.9773 39.9042 63.8653 39.4842 63.772C39.0642 63.6787 38.6396 63.5713 38.2102 63.45C37.7902 63.3193 37.4029 63.156 37.0482 62.96C36.7029 62.764 36.4229 62.5027 36.2082 62.176C35.9936 61.84 35.8862 61.4107 35.8862 60.888C35.8862 60.384 36.0169 59.922 36.2782 59.502C36.5489 59.0727 36.9596 58.732 37.5102 58.48C38.0702 58.2187 38.7796 58.088 39.6382 58.088C40.2076 58.088 40.7722 58.1627 41.3322 58.312C41.8922 58.4613 42.3776 58.676 42.7882 58.956L42.3262 60.076C41.9062 59.796 41.4629 59.5953 40.9962 59.474C40.5296 59.3433 40.0769 59.278 39.6382 59.278C39.0876 59.278 38.6349 59.348 38.2802 59.488C37.9256 59.628 37.6642 59.8147 37.4962 60.048C37.3376 60.2813 37.2582 60.5427 37.2582 60.832C37.2582 61.1773 37.3656 61.4527 37.5802 61.658C37.8042 61.8633 38.0889 62.0267 38.4342 62.148C38.7889 62.2693 39.1762 62.3813 39.5962 62.484C40.0162 62.5773 40.4362 62.6847 40.8562 62.806C41.2856 62.9273 41.6729 63.086 42.0182 63.282C42.3729 63.478 42.6576 63.7393 42.8722 64.066C43.0869 64.3927 43.1942 64.8127 43.1942 65.326C43.1942 65.8207 43.0589 66.2827 42.7882 66.712C42.5176 67.132 42.0976 67.4727 41.5282 67.734C40.9682 67.986 40.2589 68.112 39.4002 68.112ZM44.8 64.738V63.576H48.566V64.738H44.8ZM52.0913 62.834H57.1453V64.038H52.0913V62.834ZM52.2313 68H50.8313V58.2H57.7473V59.418H52.2313V68ZM62.4116 68.084C61.777 68.084 61.217 67.9673 60.7316 67.734C60.2556 67.5007 59.8823 67.146 59.6116 66.67C59.3503 66.1847 59.2196 65.578 59.2196 64.85V60.58H60.5636V64.696C60.5636 65.424 60.7363 65.97 61.0816 66.334C61.4363 66.698 61.931 66.88 62.5656 66.88C63.0323 66.88 63.4383 66.7867 63.7836 66.6C64.129 66.404 64.395 66.124 64.5816 65.76C64.7683 65.3867 64.8616 64.9387 64.8616 64.416V60.58H66.2056V68H64.9316V65.998L65.1416 66.53C64.899 67.0247 64.535 67.4073 64.0496 67.678C63.5643 67.9487 63.0183 68.084 62.4116 68.084ZM72.0682 68.084C71.2749 68.084 70.5749 67.9207 69.9682 67.594C69.3709 67.2673 68.9042 66.8193 68.5682 66.25C68.2416 65.6807 68.0782 65.0273 68.0782 64.29C68.0782 63.5527 68.2369 62.8993 68.5542 62.33C68.8809 61.7607 69.3242 61.3173 69.8842 61C70.4536 60.6733 71.0929 60.51 71.8022 60.51C72.5209 60.51 73.1556 60.6687 73.7062 60.986C74.2569 61.3033 74.6862 61.7513 74.9942 62.33C75.3116 62.8993 75.4702 63.5667 75.4702 64.332C75.4702 64.388 75.4656 64.4533 75.4562 64.528C75.4562 64.6027 75.4516 64.6727 75.4422 64.738H69.1282V63.772H74.7422L74.1962 64.108C74.2056 63.632 74.1076 63.2073 73.9022 62.834C73.6969 62.4607 73.4122 62.1713 73.0482 61.966C72.6936 61.7513 72.2782 61.644 71.8022 61.644C71.3356 61.644 70.9202 61.7513 70.5562 61.966C70.1922 62.1713 69.9076 62.4653 69.7022 62.848C69.4969 63.2213 69.3942 63.6507 69.3942 64.136V64.36C69.3942 64.8547 69.5062 65.298 69.7302 65.69C69.9636 66.0727 70.2856 66.3713 70.6962 66.586C71.1069 66.8007 71.5782 66.908 72.1102 66.908C72.5489 66.908 72.9456 66.8333 73.3002 66.684C73.6642 66.5347 73.9816 66.3107 74.2522 66.012L74.9942 66.88C74.6582 67.272 74.2382 67.5707 73.7342 67.776C73.2396 67.9813 72.6842 68.084 72.0682 68.084ZM77.3365 68V57.612H78.6805V68H77.3365ZM80.7707 64.738V63.576H84.5367V64.738H80.7707ZM89.4256 68.112C88.6789 68.112 87.9649 68 87.2836 67.776C86.6023 67.5427 86.0656 67.244 85.6736 66.88L86.1916 65.788C86.5649 66.1147 87.0409 66.3853 87.6196 66.6C88.1983 66.8147 88.8003 66.922 89.4256 66.922C89.9949 66.922 90.4569 66.8567 90.8116 66.726C91.1663 66.5953 91.4276 66.418 91.5956 66.194C91.7636 65.9607 91.8476 65.6993 91.8476 65.41C91.8476 65.074 91.7356 64.8033 91.5116 64.598C91.2969 64.3927 91.0123 64.2293 90.6576 64.108C90.3123 63.9773 89.9296 63.8653 89.5096 63.772C89.0896 63.6787 88.6649 63.5713 88.2356 63.45C87.8156 63.3193 87.4283 63.156 87.0736 62.96C86.7283 62.764 86.4483 62.5027 86.2336 62.176C86.0189 61.84 85.9116 61.4107 85.9116 60.888C85.9116 60.384 86.0423 59.922 86.3036 59.502C86.5743 59.0727 86.9849 58.732 87.5356 58.48C88.0956 58.2187 88.8049 58.088 89.6636 58.088C90.2329 58.088 90.7976 58.1627 91.3576 58.312C91.9176 58.4613 92.4029 58.676 92.8136 58.956L92.3516 60.076C91.9316 59.796 91.4883 59.5953 91.0216 59.474C90.5549 59.3433 90.1023 59.278 89.6636 59.278C89.1129 59.278 88.6603 59.348 88.3056 59.488C87.9509 59.628 87.6896 59.8147 87.5216 60.048C87.3629 60.2813 87.2836 60.5427 87.2836 60.832C87.2836 61.1773 87.3909 61.4527 87.6056 61.658C87.8296 61.8633 88.1143 62.0267 88.4596 62.148C88.8143 62.2693 89.2016 62.3813 89.6216 62.484C90.0416 62.5773 90.4616 62.6847 90.8816 62.806C91.3109 62.9273 91.6983 63.086 92.0436 63.282C92.3983 63.478 92.6829 63.7393 92.8976 64.066C93.1123 64.3927 93.2196 64.8127 93.2196 65.326C93.2196 65.8207 93.0843 66.2827 92.8136 66.712C92.5429 67.132 92.1229 67.4727 91.5536 67.734C90.9936 67.986 90.2843 68.112 89.4256 68.112ZM95.2542 70.8C94.8995 70.8 94.5542 70.7393 94.2182 70.618C93.8822 70.506 93.5929 70.338 93.3502 70.114L93.9242 69.106C94.1109 69.2833 94.3162 69.4187 94.5402 69.512C94.7642 69.6053 95.0022 69.652 95.2542 69.652C95.5809 69.652 95.8515 69.568 96.0662 69.4C96.2809 69.232 96.4815 68.9333 96.6682 68.504L97.1302 67.482L97.2702 67.314L100.182 60.58H101.498L97.9002 68.742C97.6855 69.2647 97.4429 69.6753 97.1722 69.974C96.9109 70.2727 96.6215 70.4827 96.3042 70.604C95.9869 70.7347 95.6369 70.8 95.2542 70.8ZM97.0182 68.238L93.6302 60.58H95.0302L97.9142 67.188L97.0182 68.238ZM104.785 68.084C104.169 68.084 103.581 68 103.021 67.832C102.47 67.664 102.036 67.4587 101.719 67.216L102.279 66.152C102.596 66.3667 102.988 66.5487 103.455 66.698C103.921 66.8473 104.397 66.922 104.883 66.922C105.508 66.922 105.956 66.8333 106.227 66.656C106.507 66.4787 106.647 66.2313 106.647 65.914C106.647 65.6807 106.563 65.4987 106.395 65.368C106.227 65.2373 106.003 65.1393 105.723 65.074C105.452 65.0087 105.149 64.9527 104.813 64.906C104.477 64.85 104.141 64.7847 103.805 64.71C103.469 64.626 103.161 64.514 102.881 64.374C102.601 64.2247 102.377 64.024 102.209 63.772C102.041 63.5107 101.957 63.1653 101.957 62.736C101.957 62.288 102.083 61.896 102.335 61.56C102.587 61.224 102.941 60.9673 103.399 60.79C103.865 60.6033 104.416 60.51 105.051 60.51C105.536 60.51 106.026 60.5707 106.521 60.692C107.025 60.804 107.435 60.9673 107.753 61.182L107.179 62.246C106.843 62.022 106.493 61.868 106.129 61.784C105.765 61.7 105.401 61.658 105.037 61.658C104.449 61.658 104.01 61.756 103.721 61.952C103.431 62.1387 103.287 62.3813 103.287 62.68C103.287 62.932 103.371 63.128 103.539 63.268C103.716 63.3987 103.94 63.5013 104.211 63.576C104.491 63.6507 104.799 63.716 105.135 63.772C105.471 63.8187 105.807 63.884 106.143 63.968C106.479 64.0427 106.782 64.15 107.053 64.29C107.333 64.43 107.557 64.626 107.725 64.878C107.902 65.13 107.991 65.466 107.991 65.886C107.991 66.334 107.86 66.7213 107.599 67.048C107.337 67.3747 106.969 67.6313 106.493 67.818C106.017 67.9953 105.447 68.084 104.785 68.084ZM112.218 68.084C111.472 68.084 110.893 67.8833 110.482 67.482C110.072 67.0807 109.866 66.5067 109.866 65.76V58.956H111.21V65.704C111.21 66.1053 111.308 66.4133 111.504 66.628C111.71 66.8427 111.999 66.95 112.372 66.95C112.792 66.95 113.142 66.8333 113.422 66.6L113.842 67.566C113.637 67.7433 113.39 67.874 113.1 67.958C112.82 68.042 112.526 68.084 112.218 68.084ZM108.606 61.686V60.58H113.338V61.686H108.606ZM118.525 68.084C117.732 68.084 117.032 67.9207 116.425 67.594C115.828 67.2673 115.361 66.8193 115.025 66.25C114.699 65.6807 114.535 65.0273 114.535 64.29C114.535 63.5527 114.694 62.8993 115.011 62.33C115.338 61.7607 115.781 61.3173 116.341 61C116.911 60.6733 117.55 60.51 118.259 60.51C118.978 60.51 119.613 60.6687 120.163 60.986C120.714 61.3033 121.143 61.7513 121.451 62.33C121.769 62.8993 121.927 63.5667 121.927 64.332C121.927 64.388 121.923 64.4533 121.913 64.528C121.913 64.6027 121.909 64.6727 121.899 64.738H115.585V63.772H121.199L120.653 64.108C120.663 63.632 120.565 63.2073 120.359 62.834C120.154 62.4607 119.869 62.1713 119.505 61.966C119.151 61.7513 118.735 61.644 118.259 61.644C117.793 61.644 117.377 61.7513 117.013 61.966C116.649 62.1713 116.365 62.4653 116.159 62.848C115.954 63.2213 115.851 63.6507 115.851 64.136V64.36C115.851 64.8547 115.963 65.298 116.187 65.69C116.421 66.0727 116.743 66.3713 117.153 66.586C117.564 66.8007 118.035 66.908 118.567 66.908C119.006 66.908 119.403 66.8333 119.757 66.684C120.121 66.5347 120.439 66.3107 120.709 66.012L121.451 66.88C121.115 67.272 120.695 67.5707 120.191 67.776C119.697 67.9813 119.141 68.084 118.525 68.084ZM133.076 60.51C133.673 60.51 134.2 60.6267 134.658 60.86C135.115 61.0933 135.47 61.448 135.722 61.924C135.983 62.4 136.114 63.002 136.114 63.73V68H134.77V63.884C134.77 63.1653 134.602 62.624 134.266 62.26C133.93 61.896 133.458 61.714 132.852 61.714C132.404 61.714 132.012 61.8073 131.676 61.994C131.34 62.1807 131.078 62.456 130.892 62.82C130.714 63.184 130.626 63.6367 130.626 64.178V68H129.282V63.884C129.282 63.1653 129.114 62.624 128.778 62.26C128.451 61.896 127.98 61.714 127.364 61.714C126.925 61.714 126.538 61.8073 126.202 61.994C125.866 62.1807 125.604 62.456 125.418 62.82C125.231 63.184 125.138 63.6367 125.138 64.178V68H123.794V60.58H125.082V62.554L124.872 62.05C125.105 61.5647 125.464 61.1867 125.95 60.916C126.435 60.6453 127 60.51 127.644 60.51C128.353 60.51 128.964 60.6873 129.478 61.042C129.991 61.3873 130.327 61.9147 130.486 62.624L129.94 62.4C130.164 61.8307 130.556 61.3733 131.116 61.028C131.676 60.6827 132.329 60.51 133.076 60.51Z" fill="#464649"/>
<path d="M309.5 39.9988C309.5 39.1865 310.156 38.4991 311 38.4991C311.812 38.4991 312.5 39.1865 312.5 39.9988C312.5 40.8425 311.812 41.4986 311 41.4986C310.156 41.4986 309.5 40.8425 309.5 39.9988ZM304.5 39.9988C304.5 39.1865 305.156 38.4991 306 38.4991C306.812 38.4991 307.5 39.1865 307.5 39.9988C307.5 40.8425 306.812 41.4986 306 41.4986C305.156 41.4986 304.5 40.8425 304.5 39.9988ZM302.5 39.9988C302.5 40.8425 301.812 41.4986 301 41.4986C300.156 41.4986 299.5 40.8425 299.5 39.9988C299.5 39.1865 300.156 38.4991 301 38.4991C301.812 38.4991 302.5 39.1865 302.5 39.9988Z" fill="#111212"/>
<path d="M25.47 120V110.2H29.6C30.6453 110.2 31.5647 110.405 32.358 110.816C33.1607 111.227 33.7813 111.801 34.22 112.538C34.668 113.275 34.892 114.129 34.892 115.1C34.892 116.071 34.668 116.925 34.22 117.662C33.7813 118.399 33.1607 118.973 32.358 119.384C31.5647 119.795 30.6453 120 29.6 120H25.47ZM26.87 118.782H29.516C30.328 118.782 31.028 118.628 31.616 118.32C32.2133 118.012 32.6753 117.583 33.002 117.032C33.3287 116.472 33.492 115.828 33.492 115.1C33.492 114.363 33.3287 113.719 33.002 113.168C32.6753 112.617 32.2133 112.188 31.616 111.88C31.028 111.572 30.328 111.418 29.516 111.418H26.87V118.782ZM40.0184 120.084C39.2717 120.084 38.6091 119.921 38.0304 119.594C37.4517 119.267 36.9944 118.819 36.6584 118.25C36.3224 117.671 36.1544 117.018 36.1544 116.29C36.1544 115.553 36.3224 114.899 36.6584 114.33C36.9944 113.761 37.4517 113.317 38.0304 113C38.6091 112.673 39.2717 112.51 40.0184 112.51C40.7557 112.51 41.4137 112.673 41.9924 113C42.5804 113.317 43.0377 113.761 43.3644 114.33C43.7004 114.89 43.8684 115.543 43.8684 116.29C43.8684 117.027 43.7004 117.681 43.3644 118.25C43.0377 118.819 42.5804 119.267 41.9924 119.594C41.4137 119.921 40.7557 120.084 40.0184 120.084ZM40.0184 118.908C40.4944 118.908 40.9191 118.801 41.2924 118.586C41.6751 118.371 41.9737 118.068 42.1884 117.676C42.4031 117.275 42.5104 116.813 42.5104 116.29C42.5104 115.758 42.4031 115.301 42.1884 114.918C41.9737 114.526 41.6751 114.223 41.2924 114.008C40.9191 113.793 40.4944 113.686 40.0184 113.686C39.5424 113.686 39.1177 113.793 38.7444 114.008C38.3711 114.223 38.0724 114.526 37.8484 114.918C37.6244 115.301 37.5124 115.758 37.5124 116.29C37.5124 116.813 37.6244 117.275 37.8484 117.676C38.0724 118.068 38.3711 118.371 38.7444 118.586C39.1177 118.801 39.5424 118.908 40.0184 118.908ZM48.9611 120.084C48.2051 120.084 47.5285 119.921 46.9311 119.594C46.3431 119.267 45.8811 118.819 45.5451 118.25C45.2091 117.681 45.0411 117.027 45.0411 116.29C45.0411 115.553 45.2091 114.899 45.5451 114.33C45.8811 113.761 46.3431 113.317 46.9311 113C47.5285 112.673 48.2051 112.51 48.9611 112.51C49.6331 112.51 50.2305 112.645 50.7531 112.916C51.2851 113.177 51.6958 113.569 51.9851 114.092L50.9631 114.75C50.7205 114.386 50.4218 114.12 50.0671 113.952C49.7218 113.775 49.3485 113.686 48.9471 113.686C48.4618 113.686 48.0278 113.793 47.6451 114.008C47.2625 114.223 46.9591 114.526 46.7351 114.918C46.5111 115.301 46.3991 115.758 46.3991 116.29C46.3991 116.822 46.5111 117.284 46.7351 117.676C46.9591 118.068 47.2625 118.371 47.6451 118.586C48.0278 118.801 48.4618 118.908 48.9471 118.908C49.3485 118.908 49.7218 118.824 50.0671 118.656C50.4218 118.479 50.7205 118.208 50.9631 117.844L51.9851 118.488C51.6958 119.001 51.2851 119.398 50.7531 119.678C50.2305 119.949 49.6331 120.084 48.9611 120.084ZM59.6269 120V111.418H56.2669V110.2H64.3729V111.418H61.0129V120H59.6269ZM65.5589 122.8C65.2042 122.8 64.8589 122.739 64.5229 122.618C64.1869 122.506 63.8976 122.338 63.6549 122.114L64.2289 121.106C64.4156 121.283 64.6209 121.419 64.8449 121.512C65.0689 121.605 65.3069 121.652 65.5589 121.652C65.8856 121.652 66.1562 121.568 66.3709 121.4C66.5856 121.232 66.7862 120.933 66.9729 120.504L67.4349 119.482L67.5749 119.314L70.4869 112.58H71.8029L68.2049 120.742C67.9902 121.265 67.7476 121.675 67.4769 121.974C67.2156 122.273 66.9262 122.483 66.6089 122.604C66.2916 122.735 65.9416 122.8 65.5589 122.8ZM67.3229 120.238L63.9349 112.58H65.3349L68.2189 119.188L67.3229 120.238ZM76.9912 120.084C76.3752 120.084 75.8105 119.944 75.2972 119.664C74.7932 119.375 74.3872 118.95 74.0792 118.39C73.7805 117.83 73.6312 117.13 73.6312 116.29C73.6312 115.45 73.7759 114.75 74.0652 114.19C74.3639 113.63 74.7652 113.21 75.2692 112.93C75.7825 112.65 76.3565 112.51 76.9912 112.51C77.7192 112.51 78.3632 112.669 78.9232 112.986C79.4832 113.303 79.9265 113.747 80.2532 114.316C80.5799 114.876 80.7432 115.534 80.7432 116.29C80.7432 117.046 80.5799 117.709 80.2532 118.278C79.9265 118.847 79.4832 119.291 78.9232 119.608C78.3632 119.925 77.7192 120.084 76.9912 120.084ZM73.0572 122.716V112.58H74.3452V114.582L74.2612 116.304L74.4012 118.026V122.716H73.0572ZM76.8792 118.908C77.3552 118.908 77.7799 118.801 78.1532 118.586C78.5359 118.371 78.8345 118.068 79.0492 117.676C79.2732 117.275 79.3852 116.813 79.3852 116.29C79.3852 115.758 79.2732 115.301 79.0492 114.918C78.8345 114.526 78.5359 114.223 78.1532 114.008C77.7799 113.793 77.3552 113.686 76.8792 113.686C76.4125 113.686 75.9879 113.793 75.6052 114.008C75.2319 114.223 74.9332 114.526 74.7092 114.918C74.4945 115.301 74.3872 115.758 74.3872 116.29C74.3872 116.813 74.4945 117.275 74.7092 117.676C74.9332 118.068 75.2319 118.371 75.6052 118.586C75.9879 118.801 76.4125 118.908 76.8792 118.908ZM85.9042 120.084C85.1108 120.084 84.4108 119.921 83.8042 119.594C83.2068 119.267 82.7402 118.819 82.4042 118.25C82.0775 117.681 81.9142 117.027 81.9142 116.29C81.9142 115.553 82.0728 114.899 82.3902 114.33C82.7168 113.761 83.1602 113.317 83.7202 113C84.2895 112.673 84.9288 112.51 85.6382 112.51C86.3568 112.51 86.9915 112.669 87.5422 112.986C88.0928 113.303 88.5222 113.751 88.8302 114.33C89.1475 114.899 89.3062 115.567 89.3062 116.332C89.3062 116.388 89.3015 116.453 89.2922 116.528C89.2922 116.603 89.2875 116.673 89.2782 116.738H82.9642V115.772H88.5782L88.0322 116.108C88.0415 115.632 87.9435 115.207 87.7382 114.834C87.5328 114.461 87.2482 114.171 86.8842 113.966C86.5295 113.751 86.1142 113.644 85.6382 113.644C85.1715 113.644 84.7562 113.751 84.3922 113.966C84.0282 114.171 83.7435 114.465 83.5382 114.848C83.3328 115.221 83.2302 115.651 83.2302 116.136V116.36C83.2302 116.855 83.3422 117.298 83.5662 117.69C83.7995 118.073 84.1215 118.371 84.5322 118.586C84.9428 118.801 85.4142 118.908 85.9462 118.908C86.3848 118.908 86.7815 118.833 87.1362 118.684C87.5002 118.535 87.8175 118.311 88.0882 118.012L88.8302 118.88C88.4942 119.272 88.0742 119.571 87.5702 119.776C87.0755 119.981 86.5202 120.084 85.9042 120.084ZM91.4944 114.428C91.2331 114.428 91.0091 114.339 90.8224 114.162C90.6358 113.975 90.5424 113.742 90.5424 113.462C90.5424 113.182 90.6358 112.953 90.8224 112.776C91.0091 112.599 91.2331 112.51 91.4944 112.51C91.7464 112.51 91.9611 112.599 92.1384 112.776C92.3251 112.953 92.4184 113.182 92.4184 113.462C92.4184 113.742 92.3251 113.975 92.1384 114.162C91.9611 114.339 91.7464 114.428 91.4944 114.428ZM91.4944 120.084C91.2331 120.084 91.0091 119.995 90.8224 119.818C90.6358 119.631 90.5424 119.398 90.5424 119.118C90.5424 118.838 90.6358 118.609 90.8224 118.432C91.0091 118.255 91.2331 118.166 91.4944 118.166C91.7464 118.166 91.9611 118.255 92.1384 118.432C92.3251 118.609 92.4184 118.838 92.4184 119.118C92.4184 119.398 92.3251 119.631 92.1384 119.818C91.9611 119.995 91.7464 120.084 91.4944 120.084Z" fill="#111212"/>
<path d="M101.986 120L106.424 110.2H107.81L112.262 120H110.792L106.83 110.984H107.39L103.428 120H101.986ZM103.876 117.55L104.254 116.43H109.77L110.176 117.55H103.876ZM122.81 112.51C123.407 112.51 123.935 112.627 124.392 112.86C124.849 113.093 125.204 113.448 125.456 113.924C125.717 114.4 125.848 115.002 125.848 115.73V120H124.504V115.884C124.504 115.165 124.336 114.624 124 114.26C123.664 113.896 123.193 113.714 122.586 113.714C122.138 113.714 121.746 113.807 121.41 113.994C121.074 114.181 120.813 114.456 120.626 114.82C120.449 115.184 120.36 115.637 120.36 116.178V120H119.016V115.884C119.016 115.165 118.848 114.624 118.512 114.26C118.185 113.896 117.714 113.714 117.098 113.714C116.659 113.714 116.272 113.807 115.936 113.994C115.6 114.181 115.339 114.456 115.152 114.82C114.965 115.184 114.872 115.637 114.872 116.178V120H113.528V112.58H114.816V114.554L114.606 114.05C114.839 113.565 115.199 113.187 115.684 112.916C116.169 112.645 116.734 112.51 117.378 112.51C118.087 112.51 118.699 112.687 119.212 113.042C119.725 113.387 120.061 113.915 120.22 114.624L119.674 114.4C119.898 113.831 120.29 113.373 120.85 113.028C121.41 112.683 122.063 112.51 122.81 112.51ZM132.927 120V118.432L132.857 118.138V115.464C132.857 114.895 132.689 114.456 132.353 114.148C132.026 113.831 131.532 113.672 130.869 113.672C130.43 113.672 130.001 113.747 129.581 113.896C129.161 114.036 128.806 114.227 128.517 114.47L127.957 113.462C128.34 113.154 128.797 112.921 129.329 112.762C129.87 112.594 130.435 112.51 131.023 112.51C132.04 112.51 132.824 112.757 133.375 113.252C133.926 113.747 134.201 114.503 134.201 115.52V120H132.927ZM130.491 120.084C129.94 120.084 129.455 119.991 129.035 119.804C128.624 119.617 128.307 119.361 128.083 119.034C127.859 118.698 127.747 118.32 127.747 117.9C127.747 117.499 127.84 117.135 128.027 116.808C128.223 116.481 128.536 116.22 128.965 116.024C129.404 115.828 129.992 115.73 130.729 115.73H133.081V116.696H130.785C130.113 116.696 129.66 116.808 129.427 117.032C129.194 117.256 129.077 117.527 129.077 117.844C129.077 118.208 129.222 118.502 129.511 118.726C129.8 118.941 130.202 119.048 130.715 119.048C131.219 119.048 131.658 118.936 132.031 118.712C132.414 118.488 132.689 118.161 132.857 117.732L133.123 118.656C132.946 119.095 132.633 119.445 132.185 119.706C131.737 119.958 131.172 120.084 130.491 120.084ZM140.65 112.51C141.257 112.51 141.789 112.627 142.246 112.86C142.713 113.093 143.077 113.448 143.338 113.924C143.599 114.4 143.73 115.002 143.73 115.73V120H142.386V115.884C142.386 115.165 142.209 114.624 141.854 114.26C141.509 113.896 141.019 113.714 140.384 113.714C139.908 113.714 139.493 113.807 139.138 113.994C138.783 114.181 138.508 114.456 138.312 114.82C138.125 115.184 138.032 115.637 138.032 116.178V120H136.688V112.58H137.976V114.582L137.766 114.05C138.009 113.565 138.382 113.187 138.886 112.916C139.39 112.645 139.978 112.51 140.65 112.51ZM149.283 120.084C148.565 120.084 147.921 119.925 147.351 119.608C146.791 119.291 146.348 118.847 146.021 118.278C145.695 117.709 145.531 117.046 145.531 116.29C145.531 115.534 145.695 114.876 146.021 114.316C146.348 113.747 146.791 113.303 147.351 112.986C147.921 112.669 148.565 112.51 149.283 112.51C149.909 112.51 150.473 112.65 150.977 112.93C151.481 113.21 151.883 113.63 152.181 114.19C152.489 114.75 152.643 115.45 152.643 116.29C152.643 117.13 152.494 117.83 152.195 118.39C151.906 118.95 151.509 119.375 151.005 119.664C150.501 119.944 149.927 120.084 149.283 120.084ZM149.395 118.908C149.862 118.908 150.282 118.801 150.655 118.586C151.038 118.371 151.337 118.068 151.551 117.676C151.775 117.275 151.887 116.813 151.887 116.29C151.887 115.758 151.775 115.301 151.551 114.918C151.337 114.526 151.038 114.223 150.655 114.008C150.282 113.793 149.862 113.686 149.395 113.686C148.919 113.686 148.495 113.793 148.121 114.008C147.748 114.223 147.449 114.526 147.225 114.918C147.001 115.301 146.889 115.758 146.889 116.29C146.889 116.813 147.001 117.275 147.225 117.676C147.449 118.068 147.748 118.371 148.121 118.586C148.495 118.801 148.919 118.908 149.395 118.908ZM151.929 120V117.998L152.013 116.276L151.873 114.554V109.612H153.217V120H151.929ZM160.366 120V118.432L160.296 118.138V115.464C160.296 114.895 160.128 114.456 159.792 114.148C159.466 113.831 158.971 113.672 158.308 113.672C157.87 113.672 157.44 113.747 157.02 113.896C156.6 114.036 156.246 114.227 155.956 114.47L155.396 113.462C155.779 113.154 156.236 112.921 156.768 112.762C157.31 112.594 157.874 112.51 158.462 112.51C159.48 112.51 160.264 112.757 160.814 113.252C161.365 113.747 161.64 114.503 161.64 115.52V120H160.366ZM157.93 120.084C157.38 120.084 156.894 119.991 156.474 119.804C156.064 119.617 155.746 119.361 155.522 119.034C155.298 118.698 155.186 118.32 155.186 117.9C155.186 117.499 155.28 117.135 155.466 116.808C155.662 116.481 155.975 116.22 156.404 116.024C156.843 115.828 157.431 115.73 158.168 115.73H160.52V116.696H158.224C157.552 116.696 157.1 116.808 156.866 117.032C156.633 117.256 156.516 117.527 156.516 117.844C156.516 118.208 156.661 118.502 156.95 118.726C157.24 118.941 157.641 119.048 158.154 119.048C158.658 119.048 159.097 118.936 159.47 118.712C159.853 118.488 160.128 118.161 160.296 117.732L160.562 118.656C160.385 119.095 160.072 119.445 159.624 119.706C159.176 119.958 158.612 120.084 157.93 120.084ZM170.939 120.112C170.193 120.112 169.479 120 168.797 119.776C168.116 119.543 167.579 119.244 167.187 118.88L167.705 117.788C168.079 118.115 168.555 118.385 169.133 118.6C169.712 118.815 170.314 118.922 170.939 118.922C171.509 118.922 171.971 118.857 172.325 118.726C172.68 118.595 172.941 118.418 173.109 118.194C173.277 117.961 173.361 117.699 173.361 117.41C173.361 117.074 173.249 116.803 173.025 116.598C172.811 116.393 172.526 116.229 172.171 116.108C171.826 115.977 171.443 115.865 171.023 115.772C170.603 115.679 170.179 115.571 169.749 115.45C169.329 115.319 168.942 115.156 168.587 114.96C168.242 114.764 167.962 114.503 167.747 114.176C167.533 113.84 167.425 113.411 167.425 112.888C167.425 112.384 167.556 111.922 167.817 111.502C168.088 111.073 168.499 110.732 169.049 110.48C169.609 110.219 170.319 110.088 171.177 110.088C171.747 110.088 172.311 110.163 172.871 110.312C173.431 110.461 173.917 110.676 174.327 110.956L173.865 112.076C173.445 111.796 173.002 111.595 172.535 111.474C172.069 111.343 171.616 111.278 171.177 111.278C170.627 111.278 170.174 111.348 169.819 111.488C169.465 111.628 169.203 111.815 169.035 112.048C168.877 112.281 168.797 112.543 168.797 112.832C168.797 113.177 168.905 113.453 169.119 113.658C169.343 113.863 169.628 114.027 169.973 114.148C170.328 114.269 170.715 114.381 171.135 114.484C171.555 114.577 171.975 114.685 172.395 114.806C172.825 114.927 173.212 115.086 173.557 115.282C173.912 115.478 174.197 115.739 174.411 116.066C174.626 116.393 174.733 116.813 174.733 117.326C174.733 117.821 174.598 118.283 174.327 118.712C174.057 119.132 173.637 119.473 173.067 119.734C172.507 119.986 171.798 120.112 170.939 120.112ZM180.545 112.51C181.151 112.51 181.683 112.627 182.141 112.86C182.607 113.093 182.971 113.448 183.233 113.924C183.494 114.4 183.625 115.002 183.625 115.73V120H182.281V115.884C182.281 115.165 182.103 114.624 181.749 114.26C181.403 113.896 180.913 113.714 180.279 113.714C179.803 113.714 179.387 113.807 179.033 113.994C178.678 114.181 178.403 114.456 178.207 114.82C178.02 115.184 177.927 115.637 177.927 116.178V120H176.583V109.612H177.927V114.582L177.661 114.05C177.903 113.565 178.277 113.187 178.781 112.916C179.285 112.645 179.873 112.51 180.545 112.51ZM189.29 120.084C188.543 120.084 187.881 119.921 187.302 119.594C186.723 119.267 186.266 118.819 185.93 118.25C185.594 117.671 185.426 117.018 185.426 116.29C185.426 115.553 185.594 114.899 185.93 114.33C186.266 113.761 186.723 113.317 187.302 113C187.881 112.673 188.543 112.51 189.29 112.51C190.027 112.51 190.685 112.673 191.264 113C191.852 113.317 192.309 113.761 192.636 114.33C192.972 114.89 193.14 115.543 193.14 116.29C193.14 117.027 192.972 117.681 192.636 118.25C192.309 118.819 191.852 119.267 191.264 119.594C190.685 119.921 190.027 120.084 189.29 120.084ZM189.29 118.908C189.766 118.908 190.191 118.801 190.564 118.586C190.947 118.371 191.245 118.068 191.46 117.676C191.675 117.275 191.782 116.813 191.782 116.29C191.782 115.758 191.675 115.301 191.46 114.918C191.245 114.526 190.947 114.223 190.564 114.008C190.191 113.793 189.766 113.686 189.29 113.686C188.814 113.686 188.389 113.793 188.016 114.008C187.643 114.223 187.344 114.526 187.12 114.918C186.896 115.301 186.784 115.758 186.784 116.29C186.784 116.813 186.896 117.275 187.12 117.676C187.344 118.068 187.643 118.371 188.016 118.586C188.389 118.801 188.814 118.908 189.29 118.908ZM198.933 120.084C198.317 120.084 197.752 119.944 197.239 119.664C196.735 119.375 196.329 118.95 196.021 118.39C195.722 117.83 195.573 117.13 195.573 116.29C195.573 115.45 195.717 114.75 196.007 114.19C196.305 113.63 196.707 113.21 197.211 112.93C197.724 112.65 198.298 112.51 198.933 112.51C199.661 112.51 200.305 112.669 200.865 112.986C201.425 113.303 201.868 113.747 202.195 114.316C202.521 114.876 202.685 115.534 202.685 116.29C202.685 117.046 202.521 117.709 202.195 118.278C201.868 118.847 201.425 119.291 200.865 119.608C200.305 119.925 199.661 120.084 198.933 120.084ZM194.999 122.716V112.58H196.287V114.582L196.203 116.304L196.343 118.026V122.716H194.999ZM198.821 118.908C199.297 118.908 199.721 118.801 200.095 118.586C200.477 118.371 200.776 118.068 200.991 117.676C201.215 117.275 201.327 116.813 201.327 116.29C201.327 115.758 201.215 115.301 200.991 114.918C200.776 114.526 200.477 114.223 200.095 114.008C199.721 113.793 199.297 113.686 198.821 113.686C198.354 113.686 197.929 113.793 197.547 114.008C197.173 114.223 196.875 114.526 196.651 114.918C196.436 115.301 196.329 115.758 196.329 116.29C196.329 116.813 196.436 117.275 196.651 117.676C196.875 118.068 197.173 118.371 197.547 118.586C197.929 118.801 198.354 118.908 198.821 118.908ZM208.476 120.084C207.86 120.084 207.295 119.944 206.782 119.664C206.278 119.375 205.872 118.95 205.564 118.39C205.265 117.83 205.116 117.13 205.116 116.29C205.116 115.45 205.26 114.75 205.55 114.19C205.848 113.63 206.25 113.21 206.754 112.93C207.267 112.65 207.841 112.51 208.476 112.51C209.204 112.51 209.848 112.669 210.408 112.986C210.968 113.303 211.411 113.747 211.738 114.316C212.064 114.876 212.228 115.534 212.228 116.29C212.228 117.046 212.064 117.709 211.738 118.278C211.411 118.847 210.968 119.291 210.408 119.608C209.848 119.925 209.204 120.084 208.476 120.084ZM204.542 122.716V112.58H205.83V114.582L205.746 116.304L205.886 118.026V122.716H204.542ZM208.364 118.908C208.84 118.908 209.264 118.801 209.638 118.586C210.02 118.371 210.319 118.068 210.534 117.676C210.758 117.275 210.87 116.813 210.87 116.29C210.87 115.758 210.758 115.301 210.534 114.918C210.319 114.526 210.02 114.223 209.638 114.008C209.264 113.793 208.84 113.686 208.364 113.686C207.897 113.686 207.472 113.793 207.09 114.008C206.716 114.223 206.418 114.526 206.194 114.918C205.979 115.301 205.872 115.758 205.872 116.29C205.872 116.813 205.979 117.275 206.194 117.676C206.418 118.068 206.716 118.371 207.09 118.586C207.472 118.801 207.897 118.908 208.364 118.908ZM214.085 120V112.58H215.429V120H214.085ZM214.757 111.152C214.495 111.152 214.276 111.068 214.099 110.9C213.931 110.732 213.847 110.527 213.847 110.284C213.847 110.032 213.931 109.822 214.099 109.654C214.276 109.486 214.495 109.402 214.757 109.402C215.018 109.402 215.233 109.486 215.401 109.654C215.578 109.813 215.667 110.013 215.667 110.256C215.667 110.508 215.583 110.723 215.415 110.9C215.247 111.068 215.027 111.152 214.757 111.152ZM221.957 112.51C222.563 112.51 223.095 112.627 223.553 112.86C224.019 113.093 224.383 113.448 224.645 113.924C224.906 114.4 225.037 115.002 225.037 115.73V120H223.693V115.884C223.693 115.165 223.515 114.624 223.161 114.26C222.815 113.896 222.325 113.714 221.691 113.714C221.215 113.714 220.799 113.807 220.445 113.994C220.09 114.181 219.815 114.456 219.619 114.82C219.432 115.184 219.339 115.637 219.339 116.178V120H217.995V112.58H219.283V114.582L219.073 114.05C219.315 113.565 219.689 113.187 220.193 112.916C220.697 112.645 221.285 112.51 221.957 112.51ZM230.772 122.8C230.091 122.8 229.428 122.702 228.784 122.506C228.149 122.319 227.631 122.049 227.23 121.694L227.874 120.658C228.219 120.957 228.644 121.19 229.148 121.358C229.652 121.535 230.179 121.624 230.73 121.624C231.607 121.624 232.251 121.419 232.662 121.008C233.073 120.597 233.278 119.972 233.278 119.132V117.564L233.418 116.094L233.348 114.61V112.58H234.622V118.992C234.622 120.299 234.295 121.26 233.642 121.876C232.989 122.492 232.032 122.8 230.772 122.8ZM230.604 119.692C229.885 119.692 229.241 119.543 228.672 119.244C228.112 118.936 227.664 118.511 227.328 117.97C227.001 117.429 226.838 116.803 226.838 116.094C226.838 115.375 227.001 114.75 227.328 114.218C227.664 113.677 228.112 113.257 228.672 112.958C229.241 112.659 229.885 112.51 230.604 112.51C231.239 112.51 231.817 112.641 232.34 112.902C232.863 113.154 233.278 113.546 233.586 114.078C233.903 114.61 234.062 115.282 234.062 116.094C234.062 116.897 233.903 117.564 233.586 118.096C233.278 118.628 232.863 119.029 232.34 119.3C231.817 119.561 231.239 119.692 230.604 119.692ZM230.758 118.516C231.253 118.516 231.691 118.413 232.074 118.208C232.457 118.003 232.755 117.718 232.97 117.354C233.194 116.99 233.306 116.57 233.306 116.094C233.306 115.618 233.194 115.198 232.97 114.834C232.755 114.47 232.457 114.19 232.074 113.994C231.691 113.789 231.253 113.686 230.758 113.686C230.263 113.686 229.82 113.789 229.428 113.994C229.045 114.19 228.742 114.47 228.518 114.834C228.303 115.198 228.196 115.618 228.196 116.094C228.196 116.57 228.303 116.99 228.518 117.354C228.742 117.718 229.045 118.003 229.428 118.208C229.82 118.413 230.263 118.516 230.758 118.516Z" fill="#464649"/>
<path d="M25.47 148V138.2H29.292C30.1507 138.2 30.8833 138.335 31.49 138.606C32.0967 138.877 32.5633 139.269 32.89 139.782C33.2167 140.295 33.38 140.907 33.38 141.616C33.38 142.325 33.2167 142.937 32.89 143.45C32.5633 143.954 32.0967 144.341 31.49 144.612C30.8833 144.883 30.1507 145.018 29.292 145.018H26.24L26.87 144.374V148H25.47ZM32.022 148L29.53 144.444H31.028L33.548 148H32.022ZM26.87 144.514L26.24 143.828H29.25C30.146 143.828 30.8227 143.637 31.28 143.254C31.7467 142.862 31.98 142.316 31.98 141.616C31.98 140.916 31.7467 140.375 31.28 139.992C30.8227 139.609 30.146 139.418 29.25 139.418H26.24L26.87 138.718V144.514ZM38.7499 148.084C37.9565 148.084 37.2565 147.921 36.6499 147.594C36.0525 147.267 35.5859 146.819 35.2499 146.25C34.9232 145.681 34.7599 145.027 34.7599 144.29C34.7599 143.553 34.9185 142.899 35.2359 142.33C35.5625 141.761 36.0059 141.317 36.5659 141C37.1352 140.673 37.7745 140.51 38.4839 140.51C39.2025 140.51 39.8372 140.669 40.3879 140.986C40.9385 141.303 41.3679 141.751 41.6759 142.33C41.9932 142.899 42.1519 143.567 42.1519 144.332C42.1519 144.388 42.1472 144.453 42.1379 144.528C42.1379 144.603 42.1332 144.673 42.1239 144.738H35.8099V143.772H41.4239L40.8779 144.108C40.8872 143.632 40.7892 143.207 40.5839 142.834C40.3785 142.461 40.0939 142.171 39.7299 141.966C39.3752 141.751 38.9599 141.644 38.4839 141.644C38.0172 141.644 37.6019 141.751 37.2379 141.966C36.8739 142.171 36.5892 142.465 36.3839 142.848C36.1785 143.221 36.0759 143.651 36.0759 144.136V144.36C36.0759 144.855 36.1879 145.298 36.4119 145.69C36.6452 146.073 36.9672 146.371 37.3779 146.586C37.7885 146.801 38.2599 146.908 38.7919 146.908C39.2305 146.908 39.6272 146.833 39.9819 146.684C40.3459 146.535 40.6632 146.311 40.9339 146.012L41.6759 146.88C41.3399 147.272 40.9199 147.571 40.4159 147.776C39.9212 147.981 39.3659 148.084 38.7499 148.084ZM45.8274 148L42.5794 140.58H43.9794L46.8634 147.3H46.1914L49.1314 140.58H50.4474L47.1994 148H45.8274ZM51.7017 148V140.58H53.0457V148H51.7017ZM52.3737 139.152C52.1124 139.152 51.8931 139.068 51.7157 138.9C51.5477 138.732 51.4637 138.527 51.4637 138.284C51.4637 138.032 51.5477 137.822 51.7157 137.654C51.8931 137.486 52.1124 137.402 52.3737 137.402C52.6351 137.402 52.8497 137.486 53.0177 137.654C53.1951 137.813 53.2837 138.013 53.2837 138.256C53.2837 138.508 53.1997 138.723 53.0317 138.9C52.8637 139.068 52.6444 139.152 52.3737 139.152ZM57.7399 148.084C57.1239 148.084 56.5359 148 55.9759 147.832C55.4252 147.664 54.9912 147.459 54.6739 147.216L55.2339 146.152C55.5512 146.367 55.9432 146.549 56.4099 146.698C56.8766 146.847 57.3526 146.922 57.8379 146.922C58.4632 146.922 58.9112 146.833 59.1819 146.656C59.4619 146.479 59.6019 146.231 59.6019 145.914C59.6019 145.681 59.5179 145.499 59.3499 145.368C59.1819 145.237 58.9579 145.139 58.6779 145.074C58.4072 145.009 58.1039 144.953 57.7679 144.906C57.4319 144.85 57.0959 144.785 56.7599 144.71C56.4239 144.626 56.1159 144.514 55.8359 144.374C55.5559 144.225 55.3319 144.024 55.1639 143.772C54.9959 143.511 54.9119 143.165 54.9119 142.736C54.9119 142.288 55.0379 141.896 55.2899 141.56C55.5419 141.224 55.8966 140.967 56.3539 140.79C56.8206 140.603 57.3712 140.51 58.0059 140.51C58.4912 140.51 58.9812 140.571 59.4759 140.692C59.9799 140.804 60.3906 140.967 60.7079 141.182L60.1339 142.246C59.7979 142.022 59.4479 141.868 59.0839 141.784C58.7199 141.7 58.3559 141.658 57.9919 141.658C57.4039 141.658 56.9652 141.756 56.6759 141.952C56.3866 142.139 56.2419 142.381 56.2419 142.68C56.2419 142.932 56.3259 143.128 56.4939 143.268C56.6712 143.399 56.8952 143.501 57.1659 143.576C57.4459 143.651 57.7539 143.716 58.0899 143.772C58.4259 143.819 58.7619 143.884 59.0979 143.968C59.4339 144.043 59.7372 144.15 60.0079 144.29C60.2879 144.43 60.5119 144.626 60.6799 144.878C60.8572 145.13 60.9459 145.466 60.9459 145.886C60.9459 146.334 60.8152 146.721 60.5539 147.048C60.2926 147.375 59.9239 147.631 59.4479 147.818C58.9719 147.995 58.4026 148.084 57.7399 148.084ZM62.6256 148V140.58H63.9696V148H62.6256ZM63.2976 139.152C63.0362 139.152 62.8169 139.068 62.6396 138.9C62.4716 138.732 62.3876 138.527 62.3876 138.284C62.3876 138.032 62.4716 137.822 62.6396 137.654C62.8169 137.486 63.0362 137.402 63.2976 137.402C63.5589 137.402 63.7736 137.486 63.9416 137.654C64.1189 137.813 64.2076 138.013 64.2076 138.256C64.2076 138.508 64.1236 138.723 63.9556 138.9C63.7876 139.068 63.5682 139.152 63.2976 139.152ZM69.7137 148.084C68.9671 148.084 68.3044 147.921 67.7257 147.594C67.1471 147.267 66.6897 146.819 66.3537 146.25C66.0177 145.671 65.8497 145.018 65.8497 144.29C65.8497 143.553 66.0177 142.899 66.3537 142.33C66.6897 141.761 67.1471 141.317 67.7257 141C68.3044 140.673 68.9671 140.51 69.7137 140.51C70.4511 140.51 71.1091 140.673 71.6877 141C72.2757 141.317 72.7331 141.761 73.0597 142.33C73.3957 142.89 73.5637 143.543 73.5637 144.29C73.5637 145.027 73.3957 145.681 73.0597 146.25C72.7331 146.819 72.2757 147.267 71.6877 147.594C71.1091 147.921 70.4511 148.084 69.7137 148.084ZM69.7137 146.908C70.1897 146.908 70.6144 146.801 70.9877 146.586C71.3704 146.371 71.6691 146.068 71.8837 145.676C72.0984 145.275 72.2057 144.813 72.2057 144.29C72.2057 143.758 72.0984 143.301 71.8837 142.918C71.6691 142.526 71.3704 142.223 70.9877 142.008C70.6144 141.793 70.1897 141.686 69.7137 141.686C69.2377 141.686 68.8131 141.793 68.4397 142.008C68.0664 142.223 67.7677 142.526 67.5437 142.918C67.3197 143.301 67.2077 143.758 67.2077 144.29C67.2077 144.813 67.3197 145.275 67.5437 145.676C67.7677 146.068 68.0664 146.371 68.4397 146.586C68.8131 146.801 69.2377 146.908 69.7137 146.908ZM79.3844 140.51C79.9911 140.51 80.5231 140.627 80.9804 140.86C81.4471 141.093 81.8111 141.448 82.0724 141.924C82.3338 142.4 82.4644 143.002 82.4644 143.73V148H81.1204V143.884C81.1204 143.165 80.9431 142.624 80.5884 142.26C80.2431 141.896 79.7531 141.714 79.1184 141.714C78.6424 141.714 78.2271 141.807 77.8724 141.994C77.5178 142.181 77.2424 142.456 77.0464 142.82C76.8598 143.184 76.7664 143.637 76.7664 144.178V148H75.4224V140.58H76.7104V142.582L76.5004 142.05C76.7431 141.565 77.1164 141.187 77.6204 140.916C78.1244 140.645 78.7124 140.51 79.3844 140.51ZM93.0795 148L94.2835 138.2H95.2775L94.0735 148H93.0795ZM87.8155 145.48V144.458H96.4535V145.48H87.8155ZM89.4395 148L90.6575 138.2H91.6515L90.4335 148H89.4395ZM88.2635 141.742V140.72H96.9015V141.742H88.2635ZM98.8773 142.428C98.6159 142.428 98.3919 142.339 98.2052 142.162C98.0186 141.975 97.9253 141.742 97.9253 141.462C97.9253 141.182 98.0186 140.953 98.2052 140.776C98.3919 140.599 98.6159 140.51 98.8773 140.51C99.1293 140.51 99.3439 140.599 99.5213 140.776C99.7079 140.953 99.8013 141.182 99.8013 141.462C99.8013 141.742 99.7079 141.975 99.5213 142.162C99.3439 142.339 99.1293 142.428 98.8773 142.428ZM98.8773 148.084C98.6159 148.084 98.3919 147.995 98.2052 147.818C98.0186 147.631 97.9253 147.398 97.9253 147.118C97.9253 146.838 98.0186 146.609 98.2052 146.432C98.3919 146.255 98.6159 146.166 98.8773 146.166C99.1293 146.166 99.3439 146.255 99.5213 146.432C99.7079 146.609 99.8013 146.838 99.8013 147.118C99.8013 147.398 99.7079 147.631 99.5213 147.818C99.3439 147.995 99.1293 148.084 98.8773 148.084Z" fill="#111212"/>
<path d="M110.47 148V138.2H114.866C115.995 138.2 116.863 138.429 117.47 138.886C118.077 139.334 118.38 139.95 118.38 140.734C118.38 141.266 118.259 141.714 118.016 142.078C117.783 142.442 117.465 142.722 117.064 142.918C116.663 143.114 116.229 143.212 115.762 143.212L116.014 142.792C116.574 142.792 117.069 142.89 117.498 143.086C117.927 143.282 118.268 143.571 118.52 143.954C118.772 144.327 118.898 144.794 118.898 145.354C118.898 146.194 118.581 146.847 117.946 147.314C117.321 147.771 116.387 148 115.146 148H110.47ZM111.87 146.866H115.09C115.865 146.866 116.457 146.735 116.868 146.474C117.279 146.213 117.484 145.802 117.484 145.242C117.484 144.673 117.279 144.257 116.868 143.996C116.457 143.735 115.865 143.604 115.09 143.604H111.744V142.47H114.74C115.449 142.47 116 142.339 116.392 142.078C116.784 141.817 116.98 141.425 116.98 140.902C116.98 140.379 116.784 139.987 116.392 139.726C116 139.465 115.449 139.334 114.74 139.334H111.87V146.866ZM124.272 148.112C123.506 148.112 122.82 147.916 122.214 147.524C121.616 147.132 121.14 146.563 120.786 145.816C120.44 145.069 120.268 144.164 120.268 143.1C120.268 142.036 120.44 141.131 120.786 140.384C121.14 139.637 121.616 139.068 122.214 138.676C122.82 138.284 123.506 138.088 124.272 138.088C125.028 138.088 125.709 138.284 126.316 138.676C126.922 139.068 127.398 139.637 127.744 140.384C128.089 141.131 128.262 142.036 128.262 143.1C128.262 144.164 128.089 145.069 127.744 145.816C127.398 146.563 126.922 147.132 126.316 147.524C125.709 147.916 125.028 148.112 124.272 148.112ZM124.272 146.866C124.785 146.866 125.233 146.726 125.616 146.446C126.008 146.166 126.311 145.746 126.526 145.186C126.75 144.626 126.862 143.931 126.862 143.1C126.862 142.269 126.75 141.574 126.526 141.014C126.311 140.454 126.008 140.034 125.616 139.754C125.233 139.474 124.785 139.334 124.272 139.334C123.758 139.334 123.306 139.474 122.914 139.754C122.522 140.034 122.214 140.454 121.99 141.014C121.775 141.574 121.668 142.269 121.668 143.1C121.668 143.931 121.775 144.626 121.99 145.186C122.214 145.746 122.522 146.166 122.914 146.446C123.306 146.726 123.758 146.866 124.272 146.866ZM131.204 148L135.362 138.788L135.726 139.418H129.902L130.602 138.732V141.168H129.258V138.2H136.65V139.152L132.688 148H131.204ZM145.641 148.112C144.876 148.112 144.19 147.916 143.583 147.524C142.986 147.132 142.51 146.563 142.155 145.816C141.81 145.069 141.637 144.164 141.637 143.1C141.637 142.036 141.81 141.131 142.155 140.384C142.51 139.637 142.986 139.068 143.583 138.676C144.19 138.284 144.876 138.088 145.641 138.088C146.397 138.088 147.078 138.284 147.685 138.676C148.292 139.068 148.768 139.637 149.113 140.384C149.458 141.131 149.631 142.036 149.631 143.1C149.631 144.164 149.458 145.069 149.113 145.816C148.768 146.563 148.292 147.132 147.685 147.524C147.078 147.916 146.397 148.112 145.641 148.112ZM145.641 146.866C146.154 146.866 146.602 146.726 146.985 146.446C147.377 146.166 147.68 145.746 147.895 145.186C148.119 144.626 148.231 143.931 148.231 143.1C148.231 142.269 148.119 141.574 147.895 141.014C147.68 140.454 147.377 140.034 146.985 139.754C146.602 139.474 146.154 139.334 145.641 139.334C145.128 139.334 144.675 139.474 144.283 139.754C143.891 140.034 143.583 140.454 143.359 141.014C143.144 141.574 143.037 142.269 143.037 143.1C143.037 143.931 143.144 144.626 143.359 145.186C143.583 145.746 143.891 146.166 144.283 146.446C144.675 146.726 145.128 146.866 145.641 146.866ZM154.979 148.112C154.213 148.112 153.527 147.916 152.921 147.524C152.323 147.132 151.847 146.563 151.493 145.816C151.147 145.069 150.975 144.164 150.975 143.1C150.975 142.036 151.147 141.131 151.493 140.384C151.847 139.637 152.323 139.068 152.921 138.676C153.527 138.284 154.213 138.088 154.979 138.088C155.735 138.088 156.416 138.284 157.023 138.676C157.629 139.068 158.105 139.637 158.451 140.384C158.796 141.131 158.969 142.036 158.969 143.1C158.969 144.164 158.796 145.069 158.451 145.816C158.105 146.563 157.629 147.132 157.023 147.524C156.416 147.916 155.735 148.112 154.979 148.112ZM154.979 146.866C155.492 146.866 155.94 146.726 156.323 146.446C156.715 146.166 157.018 145.746 157.233 145.186C157.457 144.626 157.569 143.931 157.569 143.1C157.569 142.269 157.457 141.574 157.233 141.014C157.018 140.454 156.715 140.034 156.323 139.754C155.94 139.474 155.492 139.334 154.979 139.334C154.465 139.334 154.013 139.474 153.621 139.754C153.229 140.034 152.921 140.454 152.697 141.014C152.482 141.574 152.375 142.269 152.375 143.1C152.375 143.931 152.482 144.626 152.697 145.186C152.921 145.746 153.229 146.166 153.621 146.446C154.013 146.726 154.465 146.866 154.979 146.866ZM164.317 148.112C163.551 148.112 162.865 147.916 162.259 147.524C161.661 147.132 161.185 146.563 160.831 145.816C160.485 145.069 160.313 144.164 160.313 143.1C160.313 142.036 160.485 141.131 160.831 140.384C161.185 139.637 161.661 139.068 162.259 138.676C162.865 138.284 163.551 138.088 164.317 138.088C165.073 138.088 165.754 138.284 166.361 138.676C166.967 139.068 167.443 139.637 167.789 140.384C168.134 141.131 168.307 142.036 168.307 143.1C168.307 144.164 168.134 145.069 167.789 145.816C167.443 146.563 166.967 147.132 166.361 147.524C165.754 147.916 165.073 148.112 164.317 148.112ZM164.317 146.866C164.83 146.866 165.278 146.726 165.661 146.446C166.053 146.166 166.356 145.746 166.571 145.186C166.795 144.626 166.907 143.931 166.907 143.1C166.907 142.269 166.795 141.574 166.571 141.014C166.356 140.454 166.053 140.034 165.661 139.754C165.278 139.474 164.83 139.334 164.317 139.334C163.803 139.334 163.351 139.474 162.959 139.754C162.567 140.034 162.259 140.454 162.035 141.014C161.82 141.574 161.713 142.269 161.713 143.1C161.713 143.931 161.82 144.626 162.035 145.186C162.259 145.746 162.567 146.166 162.959 146.446C163.351 146.726 163.803 146.866 164.317 146.866ZM168.705 148.868V148H175.705V148.868H168.705ZM180.305 148.112C179.558 148.112 178.844 148 178.163 147.776C177.481 147.543 176.945 147.244 176.553 146.88L177.071 145.788C177.444 146.115 177.92 146.385 178.499 146.6C179.077 146.815 179.679 146.922 180.305 146.922C180.874 146.922 181.336 146.857 181.691 146.726C182.045 146.595 182.307 146.418 182.475 146.194C182.643 145.961 182.727 145.699 182.727 145.41C182.727 145.074 182.615 144.803 182.391 144.598C182.176 144.393 181.891 144.229 181.537 144.108C181.191 143.977 180.809 143.865 180.389 143.772C179.969 143.679 179.544 143.571 179.115 143.45C178.695 143.319 178.307 143.156 177.953 142.96C177.607 142.764 177.327 142.503 177.113 142.176C176.898 141.84 176.791 141.411 176.791 140.888C176.791 140.384 176.921 139.922 177.183 139.502C177.453 139.073 177.864 138.732 178.415 138.48C178.975 138.219 179.684 138.088 180.543 138.088C181.112 138.088 181.677 138.163 182.237 138.312C182.797 138.461 183.282 138.676 183.693 138.956L183.231 140.076C182.811 139.796 182.367 139.595 181.901 139.474C181.434 139.343 180.981 139.278 180.543 139.278C179.992 139.278 179.539 139.348 179.185 139.488C178.83 139.628 178.569 139.815 178.401 140.048C178.242 140.281 178.163 140.543 178.163 140.832C178.163 141.177 178.27 141.453 178.485 141.658C178.709 141.863 178.993 142.027 179.339 142.148C179.693 142.269 180.081 142.381 180.501 142.484C180.921 142.577 181.341 142.685 181.761 142.806C182.19 142.927 182.577 143.086 182.923 143.282C183.277 143.478 183.562 143.739 183.777 144.066C183.991 144.393 184.099 144.813 184.099 145.326C184.099 145.821 183.963 146.283 183.693 146.712C183.422 147.132 183.002 147.473 182.433 147.734C181.873 147.986 181.163 148.112 180.305 148.112ZM187.418 142.428H192.458V143.618H187.418V142.428ZM187.544 146.782H193.256V148H186.144V138.2H193.06V139.418H187.544V146.782ZM198.649 148.112C197.781 148.112 197.039 147.921 196.423 147.538C195.807 147.155 195.336 146.605 195.009 145.886C194.692 145.158 194.533 144.271 194.533 143.226C194.533 142.115 194.729 141.177 195.121 140.412C195.513 139.647 196.059 139.068 196.759 138.676C197.459 138.284 198.262 138.088 199.167 138.088C199.634 138.088 200.077 138.135 200.497 138.228C200.927 138.321 201.295 138.466 201.603 138.662L201.071 139.754C200.819 139.577 200.53 139.455 200.203 139.39C199.886 139.325 199.55 139.292 199.195 139.292C198.197 139.292 197.403 139.605 196.815 140.23C196.227 140.846 195.933 141.765 195.933 142.988C195.933 143.184 195.943 143.417 195.961 143.688C195.98 143.959 196.027 144.225 196.101 144.486L195.625 144.01C195.765 143.581 195.985 143.221 196.283 142.932C196.591 142.633 196.955 142.414 197.375 142.274C197.805 142.125 198.267 142.05 198.761 142.05C199.415 142.05 199.993 142.171 200.497 142.414C201.001 142.657 201.398 143.002 201.687 143.45C201.977 143.889 202.121 144.411 202.121 145.018C202.121 145.643 201.967 146.189 201.659 146.656C201.351 147.123 200.936 147.482 200.413 147.734C199.891 147.986 199.303 148.112 198.649 148.112ZM198.593 146.978C199.023 146.978 199.396 146.899 199.713 146.74C200.04 146.581 200.297 146.362 200.483 146.082C200.67 145.793 200.763 145.457 200.763 145.074C200.763 144.495 200.563 144.038 200.161 143.702C199.76 143.357 199.214 143.184 198.523 143.184C198.075 143.184 197.683 143.268 197.347 143.436C197.011 143.604 196.745 143.833 196.549 144.122C196.363 144.402 196.269 144.724 196.269 145.088C196.269 145.424 196.358 145.737 196.535 146.026C196.713 146.306 196.974 146.535 197.319 146.712C197.665 146.889 198.089 146.978 198.593 146.978ZM206.996 148.112C206.203 148.112 205.517 147.995 204.938 147.762C204.359 147.529 203.911 147.197 203.594 146.768C203.277 146.329 203.118 145.816 203.118 145.228C203.118 144.649 203.267 144.159 203.566 143.758C203.874 143.347 204.317 143.039 204.896 142.834C205.475 142.619 206.175 142.512 206.996 142.512C207.817 142.512 208.517 142.619 209.096 142.834C209.684 143.039 210.132 143.347 210.44 143.758C210.748 144.169 210.902 144.659 210.902 145.228C210.902 145.816 210.743 146.329 210.426 146.768C210.109 147.197 209.656 147.529 209.068 147.762C208.48 147.995 207.789 148.112 206.996 148.112ZM206.996 146.978C207.78 146.978 208.391 146.819 208.83 146.502C209.278 146.175 209.502 145.737 209.502 145.186C209.502 144.645 209.278 144.22 208.83 143.912C208.391 143.595 207.78 143.436 206.996 143.436C206.221 143.436 205.615 143.595 205.176 143.912C204.737 144.22 204.518 144.645 204.518 145.186C204.518 145.737 204.737 146.175 205.176 146.502C205.615 146.819 206.221 146.978 206.996 146.978ZM206.996 143.268C206.249 143.268 205.615 143.17 205.092 142.974C204.569 142.769 204.168 142.479 203.888 142.106C203.608 141.723 203.468 141.271 203.468 140.748C203.468 140.197 203.613 139.726 203.902 139.334C204.201 138.933 204.616 138.625 205.148 138.41C205.68 138.195 206.296 138.088 206.996 138.088C207.705 138.088 208.326 138.195 208.858 138.41C209.39 138.625 209.805 138.933 210.104 139.334C210.403 139.726 210.552 140.197 210.552 140.748C210.552 141.271 210.412 141.723 210.132 142.106C209.852 142.479 209.446 142.769 208.914 142.974C208.382 143.17 207.743 143.268 206.996 143.268ZM206.996 142.372C207.677 142.372 208.209 142.232 208.592 141.952C208.984 141.672 209.18 141.289 209.18 140.804C209.18 140.309 208.979 139.922 208.578 139.642C208.177 139.362 207.649 139.222 206.996 139.222C206.343 139.222 205.82 139.362 205.428 139.642C205.045 139.922 204.854 140.309 204.854 140.804C204.854 141.289 205.041 141.672 205.414 141.952C205.797 142.232 206.324 142.372 206.996 142.372ZM216.006 148.112C215.212 148.112 214.526 147.995 213.948 147.762C213.369 147.529 212.921 147.197 212.604 146.768C212.286 146.329 212.128 145.816 212.128 145.228C212.128 144.649 212.277 144.159 212.576 143.758C212.884 143.347 213.327 143.039 213.906 142.834C214.484 142.619 215.184 142.512 216.006 142.512C216.827 142.512 217.527 142.619 218.106 142.834C218.694 143.039 219.142 143.347 219.45 143.758C219.758 144.169 219.912 144.659 219.912 145.228C219.912 145.816 219.753 146.329 219.436 146.768C219.118 147.197 218.666 147.529 218.078 147.762C217.49 147.995 216.799 148.112 216.006 148.112ZM216.006 146.978C216.79 146.978 217.401 146.819 217.84 146.502C218.288 146.175 218.512 145.737 218.512 145.186C218.512 144.645 218.288 144.22 217.84 143.912C217.401 143.595 216.79 143.436 216.006 143.436C215.231 143.436 214.624 143.595 214.186 143.912C213.747 144.22 213.528 144.645 213.528 145.186C213.528 145.737 213.747 146.175 214.186 146.502C214.624 146.819 215.231 146.978 216.006 146.978ZM216.006 143.268C215.259 143.268 214.624 143.17 214.102 142.974C213.579 142.769 213.178 142.479 212.898 142.106C212.618 141.723 212.478 141.271 212.478 140.748C212.478 140.197 212.622 139.726 212.912 139.334C213.21 138.933 213.626 138.625 214.158 138.41C214.69 138.195 215.306 138.088 216.006 138.088C216.715 138.088 217.336 138.195 217.868 138.41C218.4 138.625 218.815 138.933 219.114 139.334C219.412 139.726 219.562 140.197 219.562 140.748C219.562 141.271 219.422 141.723 219.142 142.106C218.862 142.479 218.456 142.769 217.924 142.974C217.392 143.17 216.752 143.268 216.006 143.268ZM216.006 142.372C216.687 142.372 217.219 142.232 217.602 141.952C217.994 141.672 218.19 141.289 218.19 140.804C218.19 140.309 217.989 139.922 217.588 139.642C217.186 139.362 216.659 139.222 216.006 139.222C215.352 139.222 214.83 139.362 214.438 139.642C214.055 139.922 213.864 140.309 213.864 140.804C213.864 141.289 214.05 141.672 214.424 141.952C214.806 142.232 215.334 142.372 216.006 142.372Z" fill="#464649"/>
</svg>
