<svg width="55" height="24" viewBox="0 0 55 24" fill="none" xmlns="http://www.w3.org/2000/svg">
<rect width="55" height="24" rx="4" fill="#0672EA"/>
<path d="M8.95881 16V7.27273H12.1548C12.7741 7.27273 13.2869 7.375 13.6932 7.57955C14.0994 7.78125 14.4034 8.0554 14.6051 8.40199C14.8068 8.74574 14.9077 9.13352 14.9077 9.56534C14.9077 9.92898 14.8409 10.2358 14.7074 10.4858C14.5739 10.733 14.3949 10.9318 14.1705 11.0824C13.9489 11.2301 13.7045 11.3381 13.4375 11.4062V11.4915C13.7273 11.5057 14.0099 11.5994 14.2855 11.7727C14.5639 11.9432 14.794 12.1861 14.9759 12.5014C15.1577 12.8168 15.2486 13.2003 15.2486 13.652C15.2486 14.098 15.1435 14.4986 14.9332 14.8537C14.7259 15.206 14.4048 15.4858 13.9702 15.6932C13.5355 15.8977 12.9801 16 12.304 16H8.95881ZM10.2756 14.8707H12.1761C12.8068 14.8707 13.2585 14.7486 13.5312 14.5043C13.804 14.2599 13.9403 13.9545 13.9403 13.5881C13.9403 13.3125 13.8707 13.0597 13.7315 12.8295C13.5923 12.5994 13.3935 12.4162 13.1349 12.2798C12.8793 12.1435 12.5753 12.0753 12.223 12.0753H10.2756V14.8707ZM10.2756 11.0483H12.0398C12.3352 11.0483 12.6009 10.9915 12.8366 10.8778C13.0753 10.7642 13.2642 10.6051 13.4034 10.4006C13.5455 10.1932 13.6165 9.94886 13.6165 9.66761C13.6165 9.30682 13.4901 9.00426 13.2372 8.75994C12.9844 8.51562 12.5966 8.39347 12.0739 8.39347H10.2756V11.0483ZM20.8544 13.2855V9.45455H22.1328V16H20.88V14.8665H20.8118C20.6612 15.2159 20.4197 15.5071 20.0874 15.7401C19.7578 15.9702 19.3473 16.0852 18.8558 16.0852C18.4354 16.0852 18.0632 15.9929 17.7393 15.8082C17.4183 15.6207 17.1655 15.3438 16.9808 14.9773C16.799 14.6108 16.7081 14.1577 16.7081 13.6179V9.45455H17.9822V13.4645C17.9822 13.9105 18.1058 14.2656 18.353 14.5298C18.6001 14.794 18.9212 14.9261 19.3161 14.9261C19.5547 14.9261 19.7919 14.8665 20.0277 14.7472C20.2663 14.6278 20.4638 14.4474 20.62 14.206C20.7791 13.9645 20.8572 13.6577 20.8544 13.2855ZM26.9002 9.45455V10.4773H23.3249V9.45455H26.9002ZM24.2837 7.88636H25.5579V14.0781C25.5579 14.3253 25.5948 14.5114 25.6687 14.6364C25.7425 14.7585 25.8377 14.8423 25.9542 14.8878C26.0735 14.9304 26.2028 14.9517 26.342 14.9517C26.4442 14.9517 26.5337 14.9446 26.6104 14.9304C26.6871 14.9162 26.7468 14.9048 26.7894 14.8963L27.0195 15.9489C26.9457 15.9773 26.8406 16.0057 26.7042 16.0341C26.5678 16.0653 26.3974 16.0824 26.1928 16.0852C25.8576 16.0909 25.5451 16.0312 25.2553 15.9062C24.9656 15.7812 24.7312 15.5881 24.5522 15.3267C24.3732 15.0653 24.2837 14.7372 24.2837 14.3423V7.88636ZM31.3651 9.45455V10.4773H27.7898V9.45455H31.3651ZM28.7486 7.88636H30.0227V14.0781C30.0227 14.3253 30.0597 14.5114 30.1335 14.6364C30.2074 14.7585 30.3026 14.8423 30.419 14.8878C30.5384 14.9304 30.6676 14.9517 30.8068 14.9517C30.9091 14.9517 30.9986 14.9446 31.0753 14.9304C31.152 14.9162 31.2116 14.9048 31.2543 14.8963L31.4844 15.9489C31.4105 15.9773 31.3054 16.0057 31.169 16.0341C31.0327 16.0653 30.8622 16.0824 30.6577 16.0852C30.3224 16.0909 30.0099 16.0312 29.7202 15.9062C29.4304 15.7812 29.196 15.5881 29.017 15.3267C28.8381 15.0653 28.7486 14.7372 28.7486 14.3423V7.88636ZM35.4613 16.1321C34.8477 16.1321 34.3121 15.9915 33.8548 15.7102C33.3974 15.429 33.0423 15.0355 32.7894 14.5298C32.5366 14.0241 32.4102 13.4332 32.4102 12.7571C32.4102 12.0781 32.5366 11.4844 32.7894 10.9759C33.0423 10.4673 33.3974 10.0724 33.8548 9.79119C34.3121 9.50994 34.8477 9.36932 35.4613 9.36932C36.0749 9.36932 36.6104 9.50994 37.0678 9.79119C37.5252 10.0724 37.8803 10.4673 38.1332 10.9759C38.386 11.4844 38.5124 12.0781 38.5124 12.7571C38.5124 13.4332 38.386 14.0241 38.1332 14.5298C37.8803 15.0355 37.5252 15.429 37.0678 15.7102C36.6104 15.9915 36.0749 16.1321 35.4613 16.1321ZM35.4656 15.0625C35.8633 15.0625 36.1928 14.9574 36.4542 14.7472C36.7156 14.5369 36.9087 14.2571 37.0337 13.9077C37.1616 13.5582 37.2255 13.1733 37.2255 12.7528C37.2255 12.3352 37.1616 11.9517 37.0337 11.6023C36.9087 11.25 36.7156 10.9673 36.4542 10.7543C36.1928 10.5412 35.8633 10.4347 35.4656 10.4347C35.065 10.4347 34.7326 10.5412 34.4684 10.7543C34.207 10.9673 34.0124 11.25 33.8846 11.6023C33.7596 11.9517 33.6971 12.3352 33.6971 12.7528C33.6971 13.1733 33.7596 13.5582 33.8846 13.9077C34.0124 14.2571 34.207 14.5369 34.4684 14.7472C34.7326 14.9574 35.065 15.0625 35.4656 15.0625ZM41.2088 12.1136V16H39.9347V9.45455H41.1577V10.5199H41.2386C41.3892 10.1733 41.625 9.89489 41.946 9.68466C42.2699 9.47443 42.6776 9.36932 43.169 9.36932C43.6151 9.36932 44.0057 9.46307 44.3409 9.65057C44.6761 9.83523 44.9361 10.1108 45.1207 10.4773C45.3054 10.8437 45.3977 11.2969 45.3977 11.8366V16H44.1236V11.9901C44.1236 11.5156 44 11.1449 43.7528 10.8778C43.5057 10.608 43.1662 10.473 42.7344 10.473C42.4389 10.473 42.1761 10.5369 41.946 10.6648C41.7188 10.7926 41.5384 10.9801 41.4048 11.2273C41.2741 11.4716 41.2088 11.767 41.2088 12.1136Z" fill="white"/>
</svg>
